<svg xmlns="http://www.w3.org/2000/svg" style="display:none">
  <symbol id="ph-list" viewBox="0 0 256 256"><path d="M224,128a8,8,0,0,1-8,8H40a8,8,0,0,1,0-16H216A8,8,0,0,1,224,128ZM40,72H216a8,8,0,0,0,0-16H40a8,8,0,0,0,0,16ZM216,184H40a8,8,0,0,0,0,16H216a8,8,0,0,0,0-16Z"/></symbol>
  <symbol id="ph-squares-four" viewBox="0 0 256 256"><path d="M104,40H56A16,16,0,0,0,40,56v48a16,16,0,0,0,16,16h48a16,16,0,0,0,16-16V56A16,16,0,0,0,104,40Zm0,64H56V56h48v48Zm96-64H152a16,16,0,0,0-16,16v48a16,16,0,0,0,16,16h48a16,16,0,0,0,16-16V56A16,16,0,0,0,200,40Zm0,64H152V56h48v48Zm-96,32H56a16,16,0,0,0-16,16v48a16,16,0,0,0,16,16h48a16,16,0,0,0,16-16V152A16,16,0,0,0,104,136Zm0,64H56V152h48v48Zm96-64H152a16,16,0,0,0-16,16v48a16,16,0,0,0,16,16h48a16,16,0,0,0,16-16V152A16,16,0,0,0,200,136Zm0,64H152V152h48v48Z"/></symbol>
  <symbol id="ph-chart-bar" viewBox="0 0 256 256"><path d="M224,200h-8V40a8,8,0,0,0-8-8H152a8,8,0,0,0-8,8V80H96a8,8,0,0,0-8,8v40H48a8,8,0,0,0-8,8v64H32a8,8,0,0,0,0,16H224a8,8,0,0,0,0-16ZM160,48h40V200H160ZM104,96h40V200H104ZM56,144H88v56H56Z"/></symbol>
  <symbol id="ph-gear" viewBox="0 0 256 256"><path d="M128,80a48,48,0,1,0,48,48A48.05,48.05,0,0,0,128,80Zm0,80a32,32,0,1,1,32-32A32,32,0,0,1,128,160Zm88-29.84q.06-2.16,0-4.32l14.92-18.64a8,8,0,0,0,1.48-7.06,107.21,107.21,0,0,0-10.88-26.25,8,8,0,0,0-6-3.93l-23.72-2.64q-1.48-1.56-3-3L186,40.54a8,8,0,0,0-3.94-6,107.71,107.71,0,0,0-26.25-10.87,8,8,0,0,0-7.06,1.49L130.16,40Q128,40,125.84,40L107.2,25.11a8,8,0,0,0-7.06-1.48A107.6,107.6,0,0,0,73.89,34.51a8,8,0,0,0-3.93,6L67.32,64.27q-1.56,1.49-3,3L40.54,70a8,8,0,0,0-6,3.94,107.71,107.71,0,0,0-10.87,26.25,8,8,0,0,0,1.49,7.06L40,125.84Q40,128,40,130.16L25.11,148.8a8,8,0,0,0-1.48,7.06,107.21,107.21,0,0,0,10.88,26.25,8,8,0,0,0,6,3.93l23.72,2.64q1.49,1.56,3,3L70,215.46a8,8,0,0,0,3.94,6,107.71,107.71,0,0,0,26.25,10.87,8,8,0,0,0,7.06-1.49L125.84,216q2.16.06,4.32,0l18.64,14.92a8,8,0,0,0,7.06,1.48,107.21,107.21,0,0,0,26.25-10.88,8,8,0,0,0,3.93-6l2.64-23.72q1.56-1.48,3-3L215.46,186a8,8,0,0,0,6-3.94,107.71,107.71,0,0,0,10.87-26.25,8,8,0,0,0-1.49-7.06Zm-16.1-6.5a73.93,73.93,0,0,1,0,8.68,8,8,0,0,0,1.74,5.48l14.19,17.73a91.57,91.57,0,0,1-6.23,15L187,173.11a8,8,0,0,0-5.1,2.64,74.11,74.11,0,0,1-6.14,6.14,8,8,0,0,0-2.64,5.1l-2.51,22.58a91.32,91.32,0,0,1-15,6.23l-17.74-14.19a8,8,0,0,0-5-1.75h-.48a73.93,73.93,0,0,1-8.68,0,8,8,0,0,0-5.48,1.74L100.45,215.8a91.57,91.57,0,0,1-15-6.23L82.89,187a8,8,0,0,0-2.64-5.1,74.11,74.11,0,0,1-6.14-6.14,8,8,0,0,0-5.1-2.64L46.43,170.6a91.32,91.32,0,0,1-6.23-15l14.19-17.74a8,8,0,0,0,1.74-5.48,73.93,73.93,0,0,1,0-8.68,8,8,0,0,0-1.74-5.48L40.2,100.45a91.57,91.57,0,0,1,6.23-15L69,82.89a8,8,0,0,0,5.1-2.64,74.11,74.11,0,0,1,6.14-6.14A8,8,0,0,0,82.89,69L85.4,46.43a91.32,91.32,0,0,1,15-6.23l17.74,14.19a8,8,0,0,0,5.48,1.74,73.93,73.93,0,0,1,8.68,0,8,8,0,0,0,5.48-1.74L155.55,40.2a91.57,91.57,0,0,1,15,6.23L173.11,69a8,8,0,0,0,2.64,5.1,74.11,74.11,0,0,1,6.14,6.14,8,8,0,0,0,5.1,2.64l22.58,2.51a91.32,91.32,0,0,1,6.23,15l-14.19,17.74A8,8,0,0,0,199.87,123.66Z"/></symbol>
  <symbol id="ph-caret-down" viewBox="0 0 256 256"><path d="M213.66,101.66l-80,80a8,8,0,0,1-11.32,0l-80-80A8,8,0,0,1,53.66,90.34L128,164.69l74.34-74.35a8,8,0,0,1,11.32,11.32Z"/></symbol>
  <symbol id="ph-caret-right" viewBox="0 0 256 256"><path d="M181.66,133.66l-80,80a8,8,0,0,1-11.32-11.32L164.69,128,90.34,53.66a8,8,0,0,1,11.32-11.32l80,80A8,8,0,0,1,181.66,133.66Z"/></symbol>
  <symbol id="ph-house" viewBox="0 0 256 256"><path d="M219.31,108.68l-80-80a16,16,0,0,0-22.62,0l-80,80A15.87,15.87,0,0,0,32,120v96a8,8,0,0,0,8,8h64a8,8,0,0,0,8-8V160h32v56a8,8,0,0,0,8,8h64a8,8,0,0,0,8-8V120A15.87,15.87,0,0,0,219.31,108.68ZM208,208H160V152a8,8,0,0,0-8-8H104a8,8,0,0,0-8,8v56H48V120l80-80,80,80Z"/></symbol>
  <symbol id="ph-book-open" viewBox="0 0 256 256"><path d="M232,48H160a40,40,0,0,0-32,16A40,40,0,0,0,96,48H24a8,8,0,0,0-8,8V200a8,8,0,0,0,8,8H96a24,24,0,0,1,24,24,8,8,0,0,0,16,0,24,24,0,0,1,24-24h72a8,8,0,0,0,8-8V56A8,8,0,0,0,232,48ZM96,192H32V64H96a24,24,0,0,1,24,24V200A39.81,39.81,0,0,0,96,192Zm128,0H160a39.81,39.81,0,0,0-24,8V88a24,24,0,0,1,24-24h64Z"/></symbol>
  <symbol id="ph-stack" viewBox="0 0 256 256"><path d="M230.91,172A8,8,0,0,1,228,182.91l-96,56a8,8,0,0,1-8.06,0l-96-56A8,8,0,0,1,36,169.09l92,53.65,92-53.65A8,8,0,0,1,230.91,172ZM220,121.09l-92,53.65L36,121.09A8,8,0,0,0,28,134.91l96,56a8,8,0,0,0,8.06,0l96-56A8,8,0,1,0,220,121.09ZM24,80a8,8,0,0,1,4-6.91l96-56a8,8,0,0,1,8.06,0l96,56a8,8,0,0,1,0,13.82l-96,56a8,8,0,0,1-8.06,0l-96-56A8,8,0,0,1,24,80Zm23.88,0L128,126.74,208.12,80,128,33.26Z"/></symbol>
  <symbol id="ph-playlist" viewBox="0 0 256 256"><path d="M32,64a8,8,0,0,1,8-8H216a8,8,0,0,1,0,16H40A8,8,0,0,1,32,64Zm8,72H160a8,8,0,0,0,0-16H40a8,8,0,0,0,0,16Zm72,48H40a8,8,0,0,0,0,16h72a8,8,0,0,0,0-16Zm135.66-57.7a8,8,0,0,1-10,5.36L208,122.75V192a32.05,32.05,0,1,1-16-27.69V112a8,8,0,0,1,10.3-7.66l40,12A8,8,0,0,1,247.66,126.3ZM192,192a16,16,0,1,0-16,16A16,16,0,0,0,192,192Z"/></symbol>
  <symbol id="ph-bookmark-simple" viewBox="0 0 256 256"><path d="M184,32H72A16,16,0,0,0,56,48V224a8,8,0,0,0,12.24,6.78L128,193.43l59.77,37.35A8,8,0,0,0,200,224V48A16,16,0,0,0,184,32Zm0,177.57-51.77-32.35a8,8,0,0,0-8.48,0L72,209.57V48H184Z"/></symbol>
  <symbol id="ph-bookmark-simple-fill" viewBox="0 0 256 256"><path d="M184,32H72A16,16,0,0,0,56,48V224a8,8,0,0,0,12.24,6.78L128,193.43l59.77,37.35A8,8,0,0,0,200,224V48A16,16,0,0,0,184,32Z"/></symbol>
  <symbol id="ph-books" viewBox="0 0 256 256"><path d="M231.65,194.55,198.46,36.75a16,16,0,0,0-19-12.39L132.65,34.42a16.08,16.08,0,0,0-12.3,19l33.19,157.8A16,16,0,0,0,169.16,224a16.25,16.25,0,0,0,3.38-.36l46.81-10.06A16.09,16.09,0,0,0,231.65,194.55ZM136,50.15c0-.06,0-.09,0-.09l46.8-10,3.33,15.87L139.33,66Zm6.62,31.47,46.82-10.05,3.34,15.9L146,97.53Zm6.64,31.57,46.82-10.06,13.3,63.24-46.82,10.06ZM216,197.94l-46.8,10-3.33-15.87L212.67,182,216,197.85C216,197.91,216,197.94,216,197.94ZM104,32H56A16,16,0,0,0,40,48V208a16,16,0,0,0,16,16h48a16,16,0,0,0,16-16V48A16,16,0,0,0,104,32ZM56,48h48V64H56Zm0,32h48v96H56Zm48,128H56V192h48v16Z"/></symbol>
  <symbol id="ph-lock" viewBox="0 0 256 256"><path d="M208,80H176V56a48,48,0,0,0-96,0V80H48A16,16,0,0,0,32,96V208a16,16,0,0,0,16,16H208a16,16,0,0,0,16-16V96A16,16,0,0,0,208,80ZM96,56a32,32,0,0,1,64,0V80H96ZM208,208H48V96H208V208Zm-68-56a12,12,0,1,1-12-12A12,12,0,0,1,140,152Z"/></symbol>
  <symbol id="ph-lock-open" viewBox="0 0 256 256"><path d="M208,80H96V56a32,32,0,0,1,32-32c15.37,0,29.2,11,32.16,25.59a8,8,0,0,0,15.68-3.18C171.32,24.15,151.2,8,128,8A48.05,48.05,0,0,0,80,56V80H48A16,16,0,0,0,32,96V208a16,16,0,0,0,16,16H208a16,16,0,0,0,16-16V96A16,16,0,0,0,208,80Zm0,128H48V96H208V208Zm-68-56a12,12,0,1,1-12-12A12,12,0,0,1,140,152Z"/></symbol>
  <symbol id="ph-users" viewBox="0 0 256 256"><path d="M117.25,157.92a60,60,0,1,0-66.5,0A95.83,95.83,0,0,0,3.53,195.63a8,8,0,1,0,13.4,8.74,80,80,0,0,1,134.14,0,8,8,0,0,0,13.4-8.74A95.83,95.83,0,0,0,117.25,157.92ZM40,108a44,44,0,1,1,44,44A44.05,44.05,0,0,1,40,108Zm210.14,98.7a8,8,0,0,1-11.07-2.33A79.83,79.83,0,0,0,172,168a8,8,0,0,1,0-16,44,44,0,1,0-16.34-84.87,8,8,0,1,1-5.94-14.85,60,60,0,0,1,55.53,105.64,95.83,95.83,0,0,1,47.22,37.71A8,8,0,0,1,250.14,206.7Z"/></symbol>
  <symbol id="ph-book" viewBox="0 0 256 256"><path d="M208,24H72A32,32,0,0,0,40,56V224a8,8,0,0,0,8,8H192a8,8,0,0,0,0-16H56a16,16,0,0,1,16-16H208a8,8,0,0,0,8-8V32A8,8,0,0,0,208,24Zm-8,160H72a31.82,31.82,0,0,0-16,4.29V56A16,16,0,0,1,72,40H200Z"/></symbol>
  <symbol id="ph-book-open-text" viewBox="0 0 256 256"><path d="M232,48H160a40,40,0,0,0-32,16A40,40,0,0,0,96,48H24a8,8,0,0,0-8,8V200a8,8,0,0,0,8,8H96a24,24,0,0,1,24,24,8,8,0,0,0,16,0,24,24,0,0,1,24-24h72a8,8,0,0,0,8-8V56A8,8,0,0,0,232,48ZM96,192H32V64H96a24,24,0,0,1,24,24V200A39.81,39.81,0,0,0,96,192Zm128,0H160a39.81,39.81,0,0,0-24,8V88a24,24,0,0,1,24-24h64ZM160,88h40a8,8,0,0,1,0,16H160a8,8,0,0,1,0-16Zm48,40a8,8,0,0,1-8,8H160a8,8,0,0,1,0-16h40A8,8,0,0,1,208,128Zm0,32a8,8,0,0,1-8,8H160a8,8,0,0,1,0-16h40A8,8,0,0,1,208,160Z"/></symbol>
  <symbol id="ph-x" viewBox="0 0 256 256"><path d="M205.66,194.34a8,8,0,0,1-11.32,11.32L128,139.31,61.66,205.66a8,8,0,0,1-11.32-11.32L116.69,128,50.34,61.66A8,8,0,0,1,61.66,50.34L128,116.69l66.34-66.35a8,8,0,0,1,11.32,11.32L139.31,128Z"/></symbol>
  <symbol id="ph-seal-check" viewBox="0 0 256 256"><path d="M225.86,102.82c-3.77-3.94-7.67-8-9.14-11.57-1.36-3.27-1.44-8.69-1.52-13.94-.15-9.76-.31-20.82-8-28.51s-18.75-7.85-28.51-8c-5.25-.08-10.67-.16-13.94-1.52-3.56-1.47-7.63-5.37-11.57-9.14C146.28,23.51,138.44,16,128,16s-18.27,7.51-25.18,14.14c-3.94,3.77-8,7.67-11.57,9.14C88,40.64,82.56,40.72,77.31,40.8c-9.76.15-20.82.31-28.51,8S41,67.55,40.8,77.31c-.08,5.25-.16,10.67-1.52,13.94-1.47,3.56-5.37,7.63-9.14,11.57C23.51,109.72,16,117.56,16,128s7.51,18.27,14.14,25.18c3.77,3.94,7.67,8,9.14,11.57,1.36,3.27,1.44,8.69,1.52,13.94.15,9.76.31,20.82,8,28.51s18.75,7.85,28.51,8c5.25.08,10.67.16,13.94,1.52,3.56,1.47,7.63,5.37,11.57,9.14C109.72,232.49,117.56,240,128,240s18.27-7.51,25.18-14.14c3.94-3.77,8-7.67,11.57-9.14,3.27-1.36,8.69-1.44,13.94-1.52,9.76-.15,20.82-.31,28.51-8s7.85-18.75,8-28.51c.08-5.25.16-10.67,1.52-13.94,1.47-3.56,5.37-7.63,9.14-11.57C232.49,146.28,240,138.44,240,128S232.49,109.73,225.86,102.82Zm-11.55,39.29c-4.79,5-9.75,10.17-12.38,16.52-2.52,6.1-2.63,13.07-2.73,19.82-.1,7-.21,14.33-3.32,17.43s-10.39,3.22-17.43,3.32c-6.75.1-13.72.21-19.82,2.73-6.35,2.63-11.52,7.59-16.52,12.38S132,224,128,224s-9.15-4.92-14.11-9.69-10.17-9.75-16.52-12.38c-6.1-2.52-13.07-2.63-19.82-2.73-7-.1-14.33-.21-17.43-3.32s-3.22-10.39-3.32-17.43c-.1-6.75-.21-13.72-2.73-19.82-2.63-6.35-7.59-11.52-12.38-16.52S32,132,32,128s4.92-9.15,9.69-14.11,9.75-10.17,12.38-16.52c2.52-6.1,2.63-13.07,2.73-19.82.1-7,.21-14.33,3.32-17.43S70.51,56.9,77.55,56.8c6.75-.1,13.72-.21,19.82-2.73,6.35-2.63,11.52-7.59,16.52-12.38S124,32,128,32s9.15,4.92,14.11,9.69,10.17,9.75,16.52,12.38c6.1,2.52,13.07,2.63,19.82,2.73,7,.1,14.33.21,17.43,3.32s3.22,10.39,3.32,17.43c.1,6.75.21,13.72,2.73,19.82,2.63,6.35,7.59,11.52,12.38,16.52S224,124,224,128,219.08,137.15,214.31,142.11ZM173.66,98.34a8,8,0,0,1,0,11.32l-56,56a8,8,0,0,1-11.32,0l-24-24a8,8,0,0,1,11.32-11.32L112,148.69l50.34-50.35A8,8,0,0,1,173.66,98.34Z"/></symbol>
  <symbol id="ph-file-text" viewBox="0 0 256 256"><path d="M213.66,82.34l-56-56A8,8,0,0,0,152,24H56A16,16,0,0,0,40,40V216a16,16,0,0,0,16,16H200a16,16,0,0,0,16-16V88A8,8,0,0,0,213.66,82.34ZM160,51.31,188.69,80H160ZM200,216H56V40h88V88a8,8,0,0,0,8,8h48V216Zm-32-80a8,8,0,0,1-8,8H96a8,8,0,0,1,0-16h64A8,8,0,0,1,168,136Zm0,32a8,8,0,0,1-8,8H96a8,8,0,0,1,0-16h64A8,8,0,0,1,168,168Z"/></symbol>
  <symbol id="ph-user" viewBox="0 0 256 256"><path d="M230.92,212c-15.23-26.33-38.7-45.21-66.09-54.16a72,72,0,1,0-73.66,0C63.78,166.78,40.31,185.66,25.08,212a8,8,0,1,0,13.85,8c18.84-32.56,52.14-52,89.07-52s70.23,19.44,89.07,52a8,8,0,1,0,13.85-8ZM72,96a56,56,0,1,1,56,56A56.06,56.06,0,0,1,72,96Z"/></symbol>
  <symbol id="ph-calendar" viewBox="0 0 256 256"><path d="M208,32H184V24a8,8,0,0,0-16,0v8H88V24a8,8,0,0,0-16,0v8H48A16,16,0,0,0,32,48V208a16,16,0,0,0,16,16H208a16,16,0,0,0,16-16V48A16,16,0,0,0,208,32ZM72,48v8a8,8,0,0,0,16,0V48h80v8a8,8,0,0,0,16,0V48h24V80H48V48ZM208,208H48V96H208V208Zm-96-88v64a8,8,0,0,1-16,0V132.94l-4.42,2.22a8,8,0,0,1-7.16-14.32l16-8A8,8,0,0,1,112,120Zm59.16,30.45L152,176h16a8,8,0,0,1,0,16H136a8,8,0,0,1-6.4-12.8l28.78-38.37A8,8,0,1,0,145.07,132a8,8,0,1,1-13.85-8A24,24,0,0,1,176,136,23.76,23.76,0,0,1,171.16,150.45Z"/></symbol>
  <symbol id="ph-tag" viewBox="0 0 256 256"><path d="M243.31,136,144,36.69A15.86,15.86,0,0,0,132.69,32H40a8,8,0,0,0-8,8v92.69A15.86,15.86,0,0,0,36.69,144L136,243.31a16,16,0,0,0,22.63,0l84.68-84.68a16,16,0,0,0,0-22.63Zm-96,96L48,132.69V48h84.69L232,147.31ZM96,84A12,12,0,1,1,84,72,12,12,0,0,1,96,84Z"/></symbol>
  <symbol id="ph-gauge" viewBox="0 0 256 256"><path d="M207.06,72.67A111.24,111.24,0,0,0,128,40h-.4C66.07,40.21,16,91,16,153.13V176a16,16,0,0,0,16,16H224a16,16,0,0,0,16-16V152A111.25,111.25,0,0,0,207.06,72.67ZM224,176H119.71l54.76-75.3a8,8,0,0,0-12.94-9.42L99.92,176H32V153.13c0-3.08.15-6.12.43-9.13H56a8,8,0,0,0,0-16H35.27c10.32-38.86,44-68.24,84.73-71.66V80a8,8,0,0,0,16,0V56.33A96.14,96.14,0,0,1,221,128H200a8,8,0,0,0,0,16h23.67c.21,2.65.33,5.31.33,8Z"/></symbol>
  <symbol id="ph-star" viewBox="0 0 256 256"><path d="M239.18,97.26A16.38,16.38,0,0,0,224.92,86l-59-4.76L143.14,26.15a16.36,16.36,0,0,0-30.27,0L90.11,81.23,31.08,86a16.46,16.46,0,0,0-9.37,28.86l45,38.83L53,211.75a16.38,16.38,0,0,0,24.5,17.82L128,198.49l50.53,31.08A16.4,16.4,0,0,0,203,211.75l-13.76-58.07,45-38.83A16.43,16.43,0,0,0,239.18,97.26Zm-15.34,5.47-48.7,42a8,8,0,0,0-2.56,7.91l14.88,62.8a.37.37,0,0,1-.17.48c-.18.14-.23.11-.38,0l-54.72-33.65a8,8,0,0,0-8.38,0L69.09,215.94c-.15.09-.19.12-.38,0a.37.37,0,0,1-.17-.48l14.88-62.8a8,8,0,0,0-2.56-7.91l-48.7-42c-.12-.1-.23-.19-.13-.5s.18-.27.33-.29l63.92-5.16A8,8,0,0,0,103,91.86l24.62-59.61c.08-.17.11-.25.35-.25s.27.08.35.25L153,91.86a8,8,0,0,0,6.75,4.92l63.92,5.16c.15,0,.24,0,.33.29S224,102.63,223.84,102.73Z"/></symbol>
  <symbol id="ph-star-fill" viewBox="0 0 256 256"><path d="M234.29,114.85l-45,38.83L203,211.75a16.4,16.4,0,0,1-24.5,17.82L128,198.49,77.47,229.57A16.4,16.4,0,0,1,53,211.75l13.76-58.07-45-38.83A16.46,16.46,0,0,1,31.08,86l59-4.76,22.76-55.08a16.36,16.36,0,0,1,30.27,0l22.75,55.08,59,4.76a16.46,16.46,0,0,1,9.37,28.86Z"/></symbol>
  <symbol id="ph-warning-circle" viewBox="0 0 256 256"><path d="M128,24A104,104,0,1,0,232,128,104.11,104.11,0,0,0,128,24Zm0,192a88,88,0,1,1,88-88A88.1,88.1,0,0,1,128,216Zm-8-80V80a8,8,0,0,1,16,0v56a8,8,0,0,1-16,0Zm20,36a12,12,0,1,1-12-12A12,12,0,0,1,140,172Z"/></symbol>
  <symbol id="ph-play-circle" viewBox="0 0 256 256"><path d="M128,24A104,104,0,1,0,232,128,104.11,104.11,0,0,0,128,24Zm0,192a88,88,0,1,1,88-88A88.1,88.1,0,0,1,128,216Zm48.24-94.78-64-40A8,8,0,0,0,100,88v80a8,8,0,0,0,12.24,6.78l64-40a8,8,0,0,0,0-13.56ZM116,153.57V102.43L156.91,128Z"/></symbol>
  <symbol id="ph-arrow-square-out" viewBox="0 0 256 256"><path d="M224,104a8,8,0,0,1-16,0V59.32l-66.33,66.34a8,8,0,0,1-11.32-11.32L196.68,48H152a8,8,0,0,1,0-16h64a8,8,0,0,1,8,8Zm-40,24a8,8,0,0,0-8,8v72H48V80h72a8,8,0,0,0,0-16H48A16,16,0,0,0,32,80V208a16,16,0,0,0,16,16H176a16,16,0,0,0,16-16V136A8,8,0,0,0,184,128Z"/></symbol>
  <symbol id="ph-pencil" viewBox="0 0 256 256"><path d="M227.31,73.37,182.63,28.68a16,16,0,0,0-22.63,0L36.69,152A15.86,15.86,0,0,0,32,163.31V208a16,16,0,0,0,16,16H92.69A15.86,15.86,0,0,0,104,219.31L227.31,96a16,16,0,0,0,0-22.63ZM51.31,160,136,75.31,152.69,92,68,176.68ZM48,179.31,76.69,208H48Zm48,25.38L79.31,188,164,103.31,180.69,120Zm96-96L147.31,64l24-24L216,84.68Z"/></symbol>
  <symbol id="ph-trash" viewBox="0 0 256 256"><path d="M216,48H176V40a24,24,0,0,0-24-24H104A24,24,0,0,0,80,40v8H40a8,8,0,0,0,0,16h8V208a16,16,0,0,0,16,16H192a16,16,0,0,0,16-16V64h8a8,8,0,0,0,0-16ZM96,40a8,8,0,0,1,8-8h48a8,8,0,0,1,8,8v8H96Zm96,168H64V64H192ZM112,104v64a8,8,0,0,1-16,0V104a8,8,0,0,1,16,0Zm48,0v64a8,8,0,0,1-16,0V104a8,8,0,0,1,16,0Z"/></symbol>
  <symbol id="ph-magnifying-glass" viewBox="0 0 256 256"><path d="M229.66,218.34l-50.07-50.06a88.11,88.11,0,1,0-11.31,11.31l50.06,50.07a8,8,0,0,0,11.32-11.32ZM40,112a72,72,0,1,1,72,72A72.08,72.08,0,0,1,40,112Z"/></symbol>
  <symbol id="ph-sun" viewBox="0 0 256 256"><path d="M120,40V16a8,8,0,0,1,16,0V40a8,8,0,0,1-16,0Zm72,88a64,64,0,1,1-64-64A64.07,64.07,0,0,1,192,128Zm-16,0a48,48,0,1,0-48,48A48.05,48.05,0,0,0,176,128ZM58.34,69.66A8,8,0,0,0,69.66,58.34l-16-16A8,8,0,0,0,42.34,53.66Zm0,116.68-16,16a8,8,0,0,0,11.32,11.32l16-16a8,8,0,0,0-11.32-11.32ZM192,72a8,8,0,0,0,5.66-2.34l16-16a8,8,0,0,0-11.32-11.32l-16,16A8,8,0,0,0,192,72Zm5.66,114.34a8,8,0,0,0-11.32,11.32l16,16a8,8,0,0,0,11.32-11.32ZM48,128a8,8,0,0,0-8-8H16a8,8,0,0,0,0,16H40A8,8,0,0,0,48,128Zm80,80a8,8,0,0,0-8,8v24a8,8,0,0,0,16,0V216A8,8,0,0,0,128,208Zm112-88H216a8,8,0,0,0,0,16h24a8,8,0,0,0,0-16Z"/></symbol>
  <symbol id="ph-sun-fill" viewBox="0 0 256 256"><path d="M120,40V16a8,8,0,0,1,16,0V40a8,8,0,0,1-16,0Zm8,24a64,64,0,1,0,64,64A64.07,64.07,0,0,0,128,64ZM58.34,69.66A8,8,0,0,0,69.66,58.34l-16-16A8,8,0,0,0,42.34,53.66Zm0,116.68-16,16a8,8,0,0,0,11.32,11.32l16-16a8,8,0,0,0-11.32-11.32ZM192,72a8,8,0,0,0,5.66-2.34l16-16a8,8,0,0,0-11.32-11.32l-16,16A8,8,0,0,0,192,72Zm5.66,114.34a8,8,0,0,0-11.32,11.32l16,16a8,8,0,0,0,11.32-11.32ZM48,128a8,8,0,0,0-8-8H16a8,8,0,0,0,0,16H40A8,8,0,0,0,48,128Zm80,80a8,8,0,0,0-8,8v24a8,8,0,0,0,16,0V216A8,8,0,0,0,128,208Zm112-88H216a8,8,0,0,0,0,16h24a8,8,0,0,0,0-16Z"/></symbol>
  <symbol id="ph-moon" viewBox="0 0 256 256"><path d="M233.54,142.23a8,8,0,0,0-8-2,88.08,88.08,0,0,1-109.8-109.8,8,8,0,0,0-10-10,104.84,104.84,0,0,0-52.91,37A104,104,0,0,0,136,224a103.09,103.09,0,0,0,62.52-20.88,104.84,104.84,0,0,0,37-52.91A8,8,0,0,0,233.54,142.23ZM188.9,190.34A88,88,0,0,1,65.66,67.11a89,89,0,0,1,31.4-26A106,106,0,0,0,96,56,104.11,104.11,0,0,0,200,160a106,106,0,0,0,14.92-1.06A89,89,0,0,1,188.9,190.34Z"/></symbol>
  <symbol id="ph-arrow-left" viewBox="0 0 256 256"><path d="M224,128a8,8,0,0,1-8,8H59.31l58.35,58.34a8,8,0,0,1-11.32,11.32l-72-72a8,8,0,0,1,0-11.32l72-72a8,8,0,0,1,11.32,11.32L59.31,120H216A8,8,0,0,1,224,128Z"/></symbol>
  <symbol id="ph-rewind" viewBox="0 0 256 256"><path d="M223.77,58a16,16,0,0,0-16.25.53L128,109.14V71.84A15.91,15.91,0,0,0,103.52,58.5L15.33,114.66a15.8,15.8,0,0,0,0,26.68l88.19,56.16A15.91,15.91,0,0,0,128,184.16v-37.3l79.52,50.64A15.91,15.91,0,0,0,232,184.16V71.84A15.83,15.83,0,0,0,223.77,58ZM112,183.93,24.18,128,112,72.06Zm104,0L128.18,128,216,72.06Z"/></symbol>
  <symbol id="ph-fast-forward" viewBox="0 0 256 256"><path d="M248.67,114.66,160.48,58.5A15.91,15.91,0,0,0,136,71.84v37.3L56.48,58.5A15.91,15.91,0,0,0,32,71.84V184.16A15.92,15.92,0,0,0,56.48,197.5L136,146.86v37.3a15.92,15.92,0,0,0,24.48,13.34l88.19-56.16a15.8,15.8,0,0,0,0-26.68ZM48,183.94V72.07L135.82,128Zm104,0V72.07L239.82,128Z"/></symbol>
  <symbol id="ph-skip-back" viewBox="0 0 256 256"><path d="M199.81,34a16,16,0,0,0-16.24.43L64,109.23V40a8,8,0,0,0-16,0V216a8,8,0,0,0,16,0V146.77l119.57,74.78A15.95,15.95,0,0,0,208,208.12V47.88A15.86,15.86,0,0,0,199.81,34ZM192,208,64.16,128,192,48.07Z"/></symbol>
  <symbol id="ph-skip-forward" viewBox="0 0 256 256"><path d="M200,32a8,8,0,0,0-8,8v69.23L72.43,34.45A15.95,15.95,0,0,0,48,47.88V208.12a16,16,0,0,0,24.43,13.43L192,146.77V216a8,8,0,0,0,16,0V40A8,8,0,0,0,200,32ZM64,207.93V48.05l127.84,80Z"/></symbol>
  <symbol id="ph-corners-out" viewBox="0 0 256 256"><path d="M216,48V88a8,8,0,0,1-16,0V56H168a8,8,0,0,1,0-16h40A8,8,0,0,1,216,48ZM88,200H56V168a8,8,0,0,0-16,0v40a8,8,0,0,0,8,8H88a8,8,0,0,0,0-16Zm120-40a8,8,0,0,0-8,8v32H168a8,8,0,0,0,0,16h40a8,8,0,0,0,8-8V168A8,8,0,0,0,208,160ZM88,40H48a8,8,0,0,0-8,8V88a8,8,0,0,0,16,0V56H88a8,8,0,0,0,0-16Z"/></symbol>
  <symbol id="ph-corners-in" viewBox="0 0 256 256"><path d="M152,96V48a8,8,0,0,1,16,0V88h40a8,8,0,0,1,0,16H160A8,8,0,0,1,152,96ZM96,152H48a8,8,0,0,0,0,16H88v40a8,8,0,0,0,16,0V160A8,8,0,0,0,96,152Zm112,0H160a8,8,0,0,0-8,8v48a8,8,0,0,0,16,0V168h40a8,8,0,0,0,0-16ZM96,40a8,8,0,0,0-8,8V88H48a8,8,0,0,0,0,16H96a8,8,0,0,0,8-8V48A8,8,0,0,0,96,40Z"/></symbol>
  <symbol id="ph-arrows-left-right" viewBox="0 0 256 256"><path d="M213.66,181.66l-32,32a8,8,0,0,1-11.32-11.32L188.69,184H48a8,8,0,0,1,0-16H188.69l-18.35-18.34a8,8,0,0,1,11.32-11.32l32,32A8,8,0,0,1,213.66,181.66Zm-139.32-64a8,8,0,0,0,11.32-11.32L67.31,88H208a8,8,0,0,0,0-16H67.31L85.66,53.66A8,8,0,0,0,74.34,42.34l-32,32a8,8,0,0,0,0,11.32Z"/></symbol>
  <symbol id="ph-arrows-out-line-vertical" viewBox="0 0 256 256"><path d="M224,128a8,8,0,0,1-8,8H40a8,8,0,0,1,0-16H216A8,8,0,0,1,224,128ZM101.66,53.66,120,35.31V96a8,8,0,0,0,16,0V35.31l18.34,18.35a8,8,0,0,0,11.32-11.32l-32-32a8,8,0,0,0-11.32,0l-32,32a8,8,0,0,0,11.32,11.32Zm52.68,148.68L136,220.69V160a8,8,0,0,0-16,0v60.69l-18.34-18.35a8,8,0,0,0-11.32,11.32l32,32a8,8,0,0,0,11.32,0l32-32a8,8,0,0,0-11.32-11.32Z"/></symbol>
  <symbol id="ph-arrows-out-line-horizontal" viewBox="0 0 256 256"><path d="M136,40V216a8,8,0,0,1-16,0V40a8,8,0,0,1,16,0ZM96,120H35.31l18.35-18.34A8,8,0,0,0,42.34,90.34l-32,32a8,8,0,0,0,0,11.32l32,32a8,8,0,0,0,11.32-11.32L35.31,136H96a8,8,0,0,0,0-16Zm149.66,2.34-32-32a8,8,0,0,0-11.32,11.32L220.69,120H160a8,8,0,0,0,0,16h60.69l-18.35,18.34a8,8,0,0,0,11.32,11.32l32-32A8,8,0,0,0,245.66,122.34Z"/></symbol>
  <symbol id="ph-arrows-in" viewBox="0 0 256 256"><path d="M144,104V64a8,8,0,0,1,16,0V84.69l42.34-42.35a8,8,0,0,1,11.32,11.32L171.31,96H192a8,8,0,0,1,0,16H152A8,8,0,0,1,144,104Zm-40,40H64a8,8,0,0,0,0,16H84.69L42.34,202.34a8,8,0,0,0,11.32,11.32L96,171.31V192a8,8,0,0,0,16,0V152A8,8,0,0,0,104,144Zm67.31,16H192a8,8,0,0,0,0-16H152a8,8,0,0,0-8,8v40a8,8,0,0,0,16,0V171.31l42.34,42.35a8,8,0,0,0,11.32-11.32ZM104,56a8,8,0,0,0-8,8V84.69L53.66,42.34A8,8,0,0,0,42.34,53.66L84.69,96H64a8,8,0,0,0,0,16h40a8,8,0,0,0,8-8V64A8,8,0,0,0,104,56Z"/></symbol>
  <symbol id="ph-rows" viewBox="0 0 256 256"><path d="M208,136H48a16,16,0,0,0-16,16v40a16,16,0,0,0,16,16H208a16,16,0,0,0,16-16V152A16,16,0,0,0,208,136Zm0,56H48V152H208v40Zm0-144H48A16,16,0,0,0,32,64v40a16,16,0,0,0,16,16H208a16,16,0,0,0,16-16V64A16,16,0,0,0,208,48Zm0,56H48V64H208v40Z"/></symbol>
  <symbol id="ph-dots-three-vertical" viewBox="0 0 256 256"><path d="M140,128a12,12,0,1,1-12-12A12,12,0,0,1,140,128ZM128,72a12,12,0,1,0-12-12A12,12,0,0,0,128,72Zm0,112a12,12,0,1,0,12,12A12,12,0,0,0,128,184Z"/></symbol>
  <symbol id="ph-dots-three" viewBox="0 0 256 256"><path d="M140,128a12,12,0,1,1-12-12A12,12,0,0,1,140,128Zm56-12a12,12,0,1,0,12,12A12,12,0,0,0,196,116ZM60,116a12,12,0,1,0,12,12A12,12,0,0,0,60,116Z"/></symbol>
  <symbol id="ph-minus" viewBox="0 0 256 256"><path d="M224,128a8,8,0,0,1-8,8H40a8,8,0,0,1,0-16H216A8,8,0,0,1,224,128Z"/></symbol>
  <symbol id="ph-plus" viewBox="0 0 256 256"><path d="M224,128a8,8,0,0,1-8,8H136v80a8,8,0,0,1-16,0V136H40a8,8,0,0,1,0-16h80V40a8,8,0,0,1,16,0v80h80A8,8,0,0,1,224,128Z"/></symbol>
  <symbol id="ph-game-controller" viewBox="0 0 256 256"><path d="M176,64H80a56,56,0,0,0-53.8,40.3L12.9,154.4A32,32,0,0,0,43.8,194.6a31.6,31.6,0,0,0,22.6-9.4L93.7,158h68.6l27.3,27.2a31.9,31.9,0,0,0,53.5-30.8l-13.3-50.1A56,56,0,0,0,176,64Zm52.9,109.4a15.9,15.9,0,0,1-27.9.5l-29.7-29.6A8,8,0,0,0,165.7,142H90.3a8,8,0,0,0-5.7,2.3L55,173.9a15.9,15.9,0,0,1-27.9-.5,15.6,15.6,0,0,1,1.2-14.9l13.3-50A40,40,0,0,1,80,80h96a40,40,0,0,1,38.4,28.5l13.3,50A15.6,15.6,0,0,1,228.9,173.4ZM96,112a8,8,0,0,1-8,8H80v8a8,8,0,0,1-16,0v-8H56a8,8,0,0,1,0-16h8V96a8,8,0,0,1,16,0v8h8A8,8,0,0,1,96,112Zm76-8a12,12,0,1,1-12-12A12,12,0,0,1,172,104Zm32,32a12,12,0,1,1-12-12A12,12,0,0,1,204,136Z"/></symbol>
  <symbol id="ph-bug" viewBox="0 0 256 256"><path d="M224,120H200V96a72.5,72.5,0,0,0-6.6-30.2l18.3-18.2a8,8,0,0,0-11.4-11.2l-15.7,15.7A71.8,71.8,0,0,0,136,24H120A71.8,71.8,0,0,0,71.4,52.1L55.7,36.4A8,8,0,0,0,44.3,47.6L62.6,65.8A72.5,72.5,0,0,0,56,96v24H32a8,8,0,0,0,0,16H56v16H32a8,8,0,0,0,0,16H57.9A72.1,72.1,0,0,0,120,232h16a72.1,72.1,0,0,0,62.1-64H224a8,8,0,0,0,0-16H200V136h24a8,8,0,0,0,0-16ZM120,40h16a56.1,56.1,0,0,1,50.2,31.1A71.5,71.5,0,0,0,152,64H104a71.5,71.5,0,0,0-34.2,7.1A56.1,56.1,0,0,1,120,40ZM184,160a56.1,56.1,0,0,1-48,55.4V144a8,8,0,0,0-16,0v71.4A56.1,56.1,0,0,1,72,160V96a56.1,56.1,0,0,1,32-50.6V72a8,8,0,0,0,16,0V40h16V72a8,8,0,0,0,16,0V45.4A56.1,56.1,0,0,1,184,96Zm-80-48a8,8,0,1,1-8-8A8,8,0,0,1,104,112Zm64,0a8,8,0,1,1-8-8A8,8,0,0,1,168,112Z"/></symbol>
  <symbol id="ph-barbell" viewBox="0 0 256 256"><path d="M248,120H232V88a16,16,0,0,0-16-16H200V56a16,16,0,0,0-16-16H168a16,16,0,0,0-16,16v64H104V56A16,16,0,0,0,88,40H72A16,16,0,0,0,56,56V72H40A16,16,0,0,0,24,88v32H8a8,8,0,0,0,0,16H24v32a16,16,0,0,0,16,16H56v16a16,16,0,0,0,16,16H88a16,16,0,0,0,16-16V136h48v64a16,16,0,0,0,16,16h16a16,16,0,0,0,16-16V184h16a16,16,0,0,0,16-16V136h16a8,8,0,0,0,0-16ZM40,168V88H56v80Zm48,32H72V56H88Zm80,0V56h16V200Zm48-32H200V88h16Z"/></symbol>
  <symbol id="ph-note" viewBox="0 0 256 256"><path d="M216,40H40A16,16,0,0,0,24,56V200a16,16,0,0,0,16,16H156.7a15.9,15.9,0,0,0,11.3-4.7L227.3,152a15.9,15.9,0,0,0,4.7-11.3V56A16,16,0,0,0,216,40ZM40,56H216v80H160a16,16,0,0,0-16,16v48H40Zm120,132.7V152h36.7ZM80,96a8,8,0,0,1,8-8h80a8,8,0,0,1,0,16H88A8,8,0,0,1,80,96Zm0,40a8,8,0,0,1,8-8h48a8,8,0,0,1,0,16H88A8,8,0,0,1,80,136Z"/></symbol>
  <symbol id="ph-flag" viewBox="0 0 256 256"><path d="M224,56H48V40a8,8,0,0,0-16,0V224a8,8,0,0,0,16,0V176H224a8,8,0,0,0,6.9-12.1L205.3,120l25.6-43.9A8,8,0,0,0,224,56Zm-13.9,104H48V72H210.1l-21,35.9a24,24,0,0,0,0,24.2Z"/></symbol>
  <symbol id="ph-arrows-clockwise" viewBox="0 0 256 256"><path d="M216,64v40a8,8,0,0,1-16,0V83.3A72,72,0,0,0,56,96a8,8,0,0,1-14.7-6.3A88,88,0,0,1,198.8,67.1L184.3,52.7a8,8,0,0,1,11.4-11.4l18,18A8,8,0,0,1,216,64ZM214.7,166.3a8,8,0,0,0-10.4,4.4A72,72,0,0,1,60.5,188.9L75,203.3a8,8,0,0,0,11.4-11.4l-18-18A8,8,0,0,0,48,179.5V216a8,8,0,0,0,16,0V195.3A88,88,0,0,0,219.1,176.7,8,8,0,0,0,214.7,166.3Z"/></symbol>
</svg>
